<?xml version="1.0" standalone="no"?>
<!DOCTYPE svg PUBLIC "-//W3C//DTD SVG 20010904//EN"
 "http://www.w3.org/TR/2001/REC-SVG-20010904/DTD/svg10.dtd">
<svg version="1.0" xmlns="http://www.w3.org/2000/svg"
 width="1889.000000pt" height="933.000000pt" viewBox="0 0 1889.000000 933.000000"
 preserveAspectRatio="xMidYMid meet">

<g transform="translate(0.000000,933.000000) scale(0.100000,-0.100000)"
fill="#000000" stroke="none">
<path d="M9240 7276 c0 -2 9 -6 20 -9 11 -3 18 -1 14 4 -5 9 -34 13 -34 5z"/>
<path d="M9016 7112 c-3 -5 1 -9 9 -9 8 0 12 4 9 9 -3 4 -7 8 -9 8 -2 0 -6 -4
-9 -8z"/>
<path d="M8975 7070 c-16 -17 -16 -20 -3 -15 9 4 19 13 22 21 7 19 2 18 -19
-6z"/>
<path d="M9847 6949 c7 -7 15 -10 18 -7 3 3 -2 9 -12 12 -14 6 -15 5 -6 -5z"/>
<path d="M10280 6936 c0 -2 8 -10 18 -17 15 -13 16 -12 3 4 -13 16 -21 21 -21
13z"/>
<path d="M10015 6870 c3 -5 8 -10 11 -10 2 0 4 5 4 10 0 6 -5 10 -11 10 -5 0
-7 -4 -4 -10z"/>
<path d="M8775 6851 c-3 -5 -2 -12 3 -15 5 -3 9 1 9 9 0 17 -3 19 -12 6z"/>
<path d="M8939 6783 c-13 -16 -12 -17 4 -4 9 7 17 15 17 17 0 8 -8 3 -21 -13z"/>
<path d="M8659 6723 c-13 -16 -12 -17 4 -4 16 13 21 21 13 21 -2 0 -10 -8 -17
-17z"/>
<path d="M10720 6546 c0 -2 8 -10 18 -17 15 -13 16 -12 3 4 -13 16 -21 21 -21
13z"/>
<path d="M10180 6476 c0 -2 8 -10 18 -17 15 -13 16 -12 3 4 -13 16 -21 21 -21
13z"/>
<path d="M8319 6403 c-13 -17 -13 -17 6 -3 11 8 22 16 24 17 2 2 0 3 -6 3 -6
0 -17 -8 -24 -17z"/>
<path d="M10323 6355 c0 -8 4 -12 9 -9 5 3 6 10 3 15 -9 13 -12 11 -12 -6z"/>
<path d="M9979 6333 c-13 -16 -12 -17 4 -4 16 13 21 21 13 21 -2 0 -10 -8 -17
-17z"/>
<path d="M10770 6336 c0 -2 8 -10 18 -17 15 -13 16 -12 3 4 -13 16 -21 21 -21
13z"/>
<path d="M10356 6318 c3 -5 10 -6 15 -3 13 9 11 12 -6 12 -8 0 -12 -4 -9 -9z"/>
<path d="M9991 6317 c2 -1 13 -9 24 -17 19 -14 19 -14 6 3 -7 9 -18 17 -24 17
-6 0 -8 -1 -6 -3z"/>
<path d="M10083 6267 c0 -8 6 -14 14 -14 9 0 10 4 2 14 -6 7 -12 13 -14 13 -1
0 -2 -6 -2 -13z"/>
<path d="M10426 6272 c-3 -5 1 -9 9 -9 8 0 12 4 9 9 -3 4 -7 8 -9 8 -2 0 -6
-4 -9 -8z"/>
<path d="M7798 6253 c7 -3 16 -2 19 1 4 3 -2 6 -13 5 -11 0 -14 -3 -6 -6z"/>
<path d="M10130 6226 c0 -2 8 -10 18 -17 15 -13 16 -12 3 4 -13 16 -21 21 -21
13z"/>
<path d="M10576 6122 c-2 -4 4 -8 14 -8 10 0 16 4 14 8 -3 4 -9 8 -14 8 -5 0
-11 -4 -14 -8z"/>
<path d="M9933 6045 c0 -8 4 -12 9 -9 5 3 6 10 3 15 -9 13 -12 11 -12 -6z"/>
<path d="M10060 5946 c0 -2 7 -7 16 -10 8 -3 12 -2 9 4 -6 10 -25 14 -25 6z"/>
<path d="M9091 5787 c2 -1 13 -9 24 -17 19 -14 19 -14 6 3 -7 9 -18 17 -24 17
-6 0 -8 -1 -6 -3z"/>
<path d="M9766 5782 c-3 -5 1 -9 9 -9 8 0 12 4 9 9 -3 4 -7 8 -9 8 -2 0 -6 -4
-9 -8z"/>
<path d="M10496 5522 c-3 -5 1 -9 9 -9 8 0 12 4 9 9 -3 4 -7 8 -9 8 -2 0 -6
-4 -9 -8z"/>
<path d="M7970 5450 c0 -5 5 -10 11 -10 5 0 7 5 4 10 -3 6 -8 10 -11 10 -2 0
-4 -4 -4 -10z"/>
<path d="M8967 5359 c7 -7 15 -10 18 -7 3 3 -2 9 -12 12 -14 6 -15 5 -6 -5z"/>
<path d="M9776 5281 c-4 -5 -2 -12 3 -15 5 -4 12 -2 15 3 4 5 2 12 -3 15 -5 4
-12 2 -15 -3z"/>
<path d="M9110 5276 c0 -2 7 -7 16 -10 8 -3 12 -2 9 4 -6 10 -25 14 -25 6z"/>
<path d="M9830 5276 c0 -2 8 -10 18 -17 15 -13 16 -12 3 4 -13 16 -21 21 -21
13z"/>
<path d="M9923 5182 c10 -10 14 -22 10 -27 -5 -4 -2 -5 5 -1 11 6 10 12 -4 27
-9 10 -19 19 -22 19 -3 0 2 -8 11 -18z"/>
<path d="M10455 5191 c-3 -5 -2 -12 3 -15 5 -3 9 1 9 9 0 17 -3 19 -12 6z"/>
<path d="M9986 5112 c-3 -5 1 -9 9 -9 8 0 12 4 9 9 -3 4 -7 8 -9 8 -2 0 -6 -4
-9 -8z"/>
<path d="M9460 5031 c0 -6 4 -13 10 -16 6 -3 7 1 4 9 -7 18 -14 21 -14 7z"/>
<path d="M10064 5018 c-4 -7 -4 -10 1 -6 4 4 15 2 24 -5 14 -11 14 -10 2 6
-16 20 -18 21 -27 5z"/>
<path d="M8816 4988 c3 -5 10 -6 15 -3 13 9 11 12 -6 12 -8 0 -12 -4 -9 -9z"/>
<path d="M10109 4943 c-13 -16 -12 -17 4 -4 16 13 21 21 13 21 -2 0 -10 -8
-17 -17z"/>
<path d="M9664 4843 c16 -20 36 -23 36 -6 0 4 -3 3 -7 0 -3 -4 -16 1 -27 10
-21 18 -21 18 -2 -4z"/>
<path d="M9700 4816 c0 -2 8 -10 18 -17 15 -13 16 -12 3 4 -13 16 -21 21 -21
13z"/>
<path d="M9736 4782 c-3 -5 11 -24 32 -43 33 -31 34 -31 9 -3 -15 17 -25 33
-21 36 3 3 1 9 -5 12 -5 4 -12 2 -15 -2z"/>
<path d="M8055 4761 c-3 -5 -2 -12 3 -15 5 -3 9 1 9 9 0 17 -3 19 -12 6z"/>
<path d="M9886 4642 c-3 -5 1 -9 9 -9 8 0 12 4 9 9 -3 4 -7 8 -9 8 -2 0 -6 -4
-9 -8z"/>
<path d="M9324 4510 c0 -13 4 -16 10 -10 7 7 7 13 0 20 -6 6 -10 3 -10 -10z"/>
<path d="M9346 4492 c-3 -5 1 -9 9 -9 8 0 12 4 9 9 -3 4 -7 8 -9 8 -2 0 -6 -4
-9 -8z"/>
<path d="M8385 4431 c-3 -5 -2 -12 3 -15 5 -3 9 1 9 9 0 17 -3 19 -12 6z"/>
<path d="M9413 4412 c0 -9 4 -23 9 -29 12 -14 32 -7 22 8 -3 5 -10 6 -16 3 -7
-5 -9 -1 -5 9 3 9 3 19 -2 21 -4 3 -8 -3 -8 -12z"/>
<path d="M9496 4298 c3 -5 10 -6 15 -3 13 9 11 12 -6 12 -8 0 -12 -4 -9 -9z"/>
<path d="M4370 3511 c0 -135 1 -139 23 -145 12 -3 31 -6 43 -6 11 0 30 -10 42
-23 21 -22 22 -35 28 -253 8 -264 7 -268 -76 -282 -34 -6 -45 -12 -44 -25 0
-9 1 -73 2 -142 l2 -125 551 0 552 0 -7 92 c-3 50 -6 144 -6 210 l0 118 -135
0 -135 0 0 -39 c0 -28 -7 -49 -24 -68 -23 -27 -27 -28 -123 -28 l-98 0 -3 113
-3 112 126 0 c124 0 125 0 121 23 -3 12 -5 42 -5 67 l-1 45 -119 -2 -118 -2
-7 46 c-3 25 -6 74 -6 109 l0 64 78 0 c91 0 148 -14 162 -39 5 -10 12 -37 16
-60 l7 -41 128 0 129 0 0 210 0 210 -550 0 -550 0 0 -139z"/>
<path d="M6084 3573 c3 -42 6 -97 6 -123 0 -47 0 -48 38 -54 20 -3 43 -10 50
-15 14 -8 30 -91 18 -91 -4 0 -30 12 -58 26 -77 39 -136 54 -213 54 -266 0
-399 -162 -382 -465 15 -273 145 -415 378 -415 121 0 207 38 261 115 18 25 35
45 40 45 4 0 8 -31 8 -70 l0 -70 255 0 255 0 0 140 0 140 -40 6 c-73 12 -72 5
-76 356 -3 172 -7 355 -10 406 l-6 92 -265 0 -266 0 7 -77z m82 -452 c30 -18
32 -22 38 -110 12 -148 -8 -246 -53 -271 -32 -17 -96 -12 -123 10 -32 25 -51
91 -52 183 -1 95 9 140 40 177 22 25 33 30 72 30 29 0 59 -8 78 -19z"/>
<path d="M8100 3510 l0 -140 42 -6 c23 -4 52 -17 63 -28 20 -20 22 -35 28
-244 4 -135 3 -232 -3 -247 -11 -28 -45 -45 -91 -45 l-29 0 0 -68 c0 -38 3
-103 6 -145 l7 -77 373 0 374 0 0 118 c0 162 1 158 -74 166 -34 4 -66 10 -72
14 -19 12 -34 50 -34 86 l0 36 138 0 c323 1 435 47 489 202 20 59 20 209 -1
280 -38 132 -134 209 -286 228 -41 5 -267 10 -502 10 l-428 0 0 -140z m747
-172 c45 -46 47 -158 2 -203 -16 -16 -33 -20 -92 -20 l-72 0 -3 129 -3 128 71
-4 c60 -3 74 -8 97 -30z"/>
<path d="M9414 3628 c3 -13 6 -75 6 -139 l0 -116 40 -12 c67 -20 69 -28 72
-287 3 -259 2 -265 -68 -278 l-34 -7 0 -139 0 -140 325 0 325 0 0 140 0 140
-27 6 c-51 10 -73 24 -83 50 -6 14 -10 89 -10 167 0 78 -3 253 -7 390 l-6 247
-270 0 -269 0 6 -22z"/>
<path d="M14000 3610 c0 -49 -30 -130 -66 -177 -34 -45 -105 -90 -155 -98
l-39 -7 0 -124 0 -124 65 0 65 0 0 -152 c0 -242 22 -327 100 -389 45 -36 134
-59 227 -59 210 0 309 81 333 275 6 44 7 106 4 138 l-7 57 -38 0 -39 0 0 -90
c0 -84 -2 -93 -25 -116 -33 -33 -80 -30 -107 7 -16 22 -20 49 -25 177 l-6 152
116 0 117 0 0 140 0 140 -114 0 -113 0 -7 53 c-3 28 -6 94 -6 145 l0 92 -140
0 -140 0 0 -40z"/>
<path d="M10448 3375 c-107 -27 -207 -96 -235 -162 -20 -50 -17 -129 9 -174
40 -72 154 -101 248 -63 56 23 80 60 80 124 0 44 -4 56 -29 81 -24 24 -38 29
-76 29 -25 0 -55 -5 -66 -10 -27 -15 -24 4 4 22 53 35 163 47 227 25 71 -24
103 -125 61 -192 -24 -40 -115 -88 -221 -115 -141 -36 -183 -51 -238 -87 -61
-38 -82 -77 -82 -148 0 -151 122 -234 325 -222 137 8 232 53 262 126 l16 36
18 -42 c35 -82 157 -132 289 -119 188 19 239 77 248 279 l5 107 -46 0 -46 0 1
-85 c1 -88 -9 -115 -42 -115 -10 0 -22 6 -28 13 -5 6 -14 120 -19 252 -9 231
-10 242 -36 291 -32 64 -90 108 -177 136 -86 28 -363 36 -452 13z m250 -541
c-6 -82 -24 -120 -65 -130 -101 -26 -121 100 -25 154 21 12 46 30 56 41 30 33
39 15 34 -65z"/>
<path d="M12015 3383 c-85 -19 -156 -69 -189 -135 -14 -28 -26 -62 -26 -75 0
-13 -5 -23 -12 -23 -8 0 -9 29 -5 105 l6 105 -231 0 c-206 0 -229 -2 -224 -16
3 -9 6 -72 6 -140 l0 -124 35 0 c63 0 75 -24 75 -144 0 -119 -6 -132 -72 -142
-34 -6 -39 -10 -34 -28 3 -12 6 -74 6 -138 l0 -118 320 0 321 0 -3 142 -3 143
-40 3 c-61 4 -69 19 -73 126 -3 72 0 101 13 125 28 55 105 69 145 26 23 -24
23 -29 28 -295 l5 -270 263 0 264 0 0 140 c0 105 -3 140 -12 140 -33 0 -87 22
-93 38 -4 9 -10 94 -14 187 -9 195 -23 240 -94 300 -64 55 -131 75 -245 74
-53 -1 -106 -3 -117 -6z"/>
<path d="M12980 3376 c-125 -28 -241 -110 -289 -204 -70 -137 -67 -330 6 -465
95 -174 358 -262 637 -212 187 33 297 135 329 303 l7 32 -139 0 -138 0 -7 -31
c-15 -78 -71 -114 -167 -107 -54 4 -66 9 -90 36 -29 32 -49 87 -49 135 l0 27
305 0 305 0 0 23 c-1 55 -30 178 -54 230 -57 119 -167 203 -303 232 -82 18
-276 18 -353 1z m269 -207 c29 -27 51 -79 51 -119 l0 -31 -112 3 -113 3 3 30
c6 54 23 94 49 115 35 27 92 26 122 -1z"/>
<path d="M6784 3338 c3 -13 6 -76 6 -140 l0 -118 39 0 c32 0 60 -13 72 -33 1
-1 4 -78 8 -172 8 -187 19 -228 79 -297 51 -57 119 -81 244 -86 84 -3 119 0
165 14 77 24 135 82 159 158 10 31 21 56 26 56 4 0 8 -47 8 -105 l0 -105 230
0 230 0 0 48 c0 27 -3 90 -6 140 l-7 91 -39 6 c-62 11 -68 28 -68 201 0 83 -3
199 -7 257 l-6 107 -264 0 -263 0 0 -140 0 -140 38 0 c67 0 77 -15 80 -123 3
-73 0 -102 -13 -126 -27 -54 -99 -68 -139 -28 -23 23 -24 29 -31 290 l-7 267
-270 0 -270 0 6 -22z"/>
<path d="M5240 1979 c0 -81 3 -161 6 -178 l7 -31 103 0 c86 0 104 3 104 15 0
12 -16 15 -84 15 l-85 0 -6 43 c-4 24 -5 55 -3 68 3 22 8 24 71 27 49 2 67 7
67 17 0 10 -18 15 -67 17 l-68 3 -3 57 -3 57 81 3 c116 4 105 22 -18 28 l-102
5 0 -146z"/>
<path d="M6628 2122 l-98 -3 0 -98 c0 -54 3 -132 6 -174 l7 -77 103 0 c86 0
104 3 104 15 0 12 -16 15 -84 15 l-84 0 -4 66 c-1 36 -1 68 1 70 2 2 33 4 68
4 48 0 63 3 63 15 0 11 -16 15 -67 17 l-68 3 -3 58 -3 57 86 0 c67 0 85 3 85
14 0 21 -4 21 -112 18z"/>
<path d="M8380 2112 c-19 -9 -45 -35 -58 -57 -19 -34 -22 -52 -20 -117 3 -82
17 -111 71 -152 39 -29 123 -33 165 -7 31 20 32 22 32 96 l0 75 -60 0 c-47 0
-60 -3 -60 -15 0 -11 11 -15 40 -15 l40 0 0 -53 c0 -48 -3 -55 -26 -65 -49
-23 -117 6 -145 60 -35 69 -19 176 32 212 27 18 100 21 131 5 35 -19 43 6 10
30 -37 26 -103 28 -152 3z"/>
<path d="M8844 2120 c-58 -23 -100 -118 -91 -203 11 -92 66 -148 152 -155 44
-4 56 0 80 20 36 31 26 58 -12 32 -34 -22 -99 -20 -125 3 -67 60 -72 192 -10
250 26 24 55 27 136 12 30 -6 29 15 -3 34 -31 18 -92 22 -127 7z"/>
<path d="M10669 2101 c-32 -33 -39 -82 -15 -114 7 -9 46 -33 85 -52 79 -39
101 -67 81 -104 -22 -42 -83 -48 -138 -14 -24 15 -52 11 -52 -6 0 -6 19 -20
42 -32 61 -31 132 -23 170 20 54 60 33 113 -65 162 -34 17 -70 38 -79 47 -22
19 -23 55 -3 72 18 15 86 15 115 0 20 -11 40 -6 40 9 0 16 -68 41 -110 41 -33
0 -48 -6 -71 -29z"/>
<path d="M11844 2116 c-55 -24 -79 -70 -82 -161 -3 -71 -1 -84 20 -114 36 -53
71 -74 130 -78 41 -3 60 1 86 16 31 20 32 22 32 96 l0 75 -60 0 c-47 0 -60 -3
-60 -15 0 -11 11 -15 40 -15 l40 0 0 -54 c0 -51 -2 -55 -29 -64 -31 -11 -92
-2 -115 17 -42 35 -61 157 -33 210 20 40 61 63 107 63 24 -1 48 -6 53 -11 16
-16 37 -13 37 4 0 38 -105 57 -166 31z"/>
<path d="M12912 2110 c-99 -60 -94 -260 8 -328 66 -45 164 -16 202 59 26 49
24 158 -2 210 -39 75 -136 103 -208 59z m137 -36 c66 -47 68 -200 3 -258 -23
-20 -79 -24 -111 -7 -69 38 -79 210 -14 260 31 25 89 27 122 5z"/>
<path d="M13973 2110 c-44 -26 -65 -72 -70 -150 -7 -112 48 -188 144 -197 93
-9 156 64 156 181 0 75 -29 138 -76 166 -42 26 -112 26 -154 0z m136 -36 c32
-23 51 -73 51 -134 0 -108 -76 -172 -154 -131 -74 40 -87 207 -19 260 31 25
89 27 122 5z"/>
<path d="M4410 2113 c0 -5 16 -83 37 -175 37 -167 37 -168 64 -168 29 0 32 10
80 238 10 48 28 63 29 24 1 -9 16 -71 33 -137 31 -113 35 -120 60 -123 15 -2
27 -2 27 0 1 2 15 80 33 173 28 142 31 171 19 173 -23 6 -28 -11 -53 -164 -12
-78 -26 -141 -30 -139 -4 3 -10 22 -13 42 -4 21 -21 89 -38 151 -27 100 -33
113 -51 110 -22 -3 -28 -22 -74 -228 l-19 -85 -11 50 c-6 28 -21 98 -33 158
-19 90 -26 107 -41 107 -11 0 -19 -3 -19 -7z"/>
<path d="M4880 1945 c0 -168 1 -175 20 -175 18 0 20 7 20 85 l0 86 88 -3 87
-3 3 -82 c3 -75 5 -83 22 -83 19 0 20 7 20 123 0 174 -8 227 -32 227 -18 0
-20 -6 -17 -72 l4 -73 -87 -3 -88 -3 0 76 c0 68 -2 75 -20 75 -19 0 -20 -7
-20 -175z"/>
<path d="M5533 2023 c4 -54 7 -133 7 -175 0 -71 2 -78 20 -78 18 0 20 7 20 75
l0 75 34 0 c33 0 37 -5 77 -75 35 -60 48 -75 67 -75 l24 0 -20 33 c-72 118
-74 122 -42 132 26 8 50 55 50 95 0 21 -9 41 -29 61 -28 28 -33 29 -122 29
l-92 0 6 -97z m177 47 c25 -25 26 -61 2 -90 -14 -18 -32 -24 -74 -28 l-55 -4
-6 53 c-12 93 -14 89 53 89 47 0 64 -4 80 -20z"/>
<path d="M5860 1945 l0 -175 105 0 c87 0 105 3 105 15 0 12 -16 15 -85 15
l-85 0 0 70 0 70 70 0 c56 0 70 3 70 15 0 12 -14 15 -70 15 l-70 0 0 60 0 60
80 0 c64 0 80 3 80 15 0 12 -18 15 -100 15 l-100 0 0 -175z"/>
<path d="M6260 2022 c0 -55 3 -133 6 -175 l7 -77 98 0 c81 0 99 3 99 15 0 12
-15 15 -79 15 l-78 0 -7 77 c-3 42 -6 114 -6 160 0 76 -2 83 -20 83 -19 0 -20
-7 -20 -98z"/>
<path d="M6842 1952 c-29 -92 -52 -170 -52 -174 0 -5 8 -8 19 -8 13 0 22 13
32 53 l14 52 69 0 69 0 17 -50 c13 -38 22 -51 40 -53 16 -3 21 0 18 10 -121
343 -119 338 -147 338 -25 0 -28 -7 -79 -168z m133 -19 c5 -22 2 -23 -50 -23
-30 0 -55 3 -55 6 0 8 38 141 47 164 5 13 39 -75 58 -147z"/>
<path d="M7130 1945 c0 -168 1 -175 20 -175 18 0 20 7 20 75 l0 75 35 0 c33 0
37 -4 77 -75 33 -57 48 -74 66 -75 12 0 22 2 22 5 0 2 -18 34 -40 70 -41 68
-47 85 -30 85 6 0 22 11 35 25 25 24 34 81 19 120 -12 30 -60 45 -144 45 l-80
0 0 -175z m168 129 c22 -15 30 -66 14 -91 -11 -18 -58 -33 -103 -33 l-39 0 0
70 0 70 53 0 c31 0 61 -6 75 -16z"/>
<path d="M7450 1945 c0 -171 0 -175 21 -175 21 0 21 3 17 151 -2 83 0 145 5
137 4 -7 44 -75 88 -150 68 -117 84 -138 105 -138 24 0 24 1 24 93 0 163 -11
257 -29 257 -14 0 -16 -18 -13 -147 4 -171 13 -173 -98 20 -61 104 -78 127
-97 127 l-23 0 0 -175z"/>
<path d="M7810 1945 c0 -168 1 -175 20 -175 19 0 20 7 20 175 0 168 -1 175
-20 175 -19 0 -20 -7 -20 -175z"/>
<path d="M7954 2105 c3 -9 6 -88 6 -176 0 -156 0 -159 22 -159 21 0 21 1 15
152 l-7 152 87 -151 c72 -125 92 -152 111 -153 22 0 22 0 22 175 0 172 0 175
-22 175 -21 0 -21 -1 -15 -152 l6 -152 -46 79 c-116 204 -128 220 -158 223
-22 3 -27 0 -21 -13z"/>
<path d="M9090 1945 l0 -175 105 0 c87 0 105 3 105 15 0 12 -16 15 -85 15
l-85 0 0 70 0 70 70 0 c56 0 70 3 70 15 0 12 -14 15 -70 15 l-70 0 0 60 0 60
80 0 c64 0 80 3 80 15 0 12 -18 15 -100 15 l-100 0 0 -175z"/>
<path d="M9380 1991 c0 -159 8 -221 27 -221 13 0 14 24 11 150 -1 83 -2 150
-2 150 1 0 41 -67 89 -150 74 -127 91 -150 111 -150 24 0 24 1 24 108 0 156
-10 242 -27 242 -12 0 -13 -26 -11 -145 2 -80 1 -145 -2 -145 -3 0 -43 65 -89
145 -70 122 -87 145 -107 145 -24 0 -24 0 -24 -129z"/>
<path d="M9702 2108 c3 -8 28 -15 59 -18 l54 -5 3 -157 c2 -150 4 -158 22
-158 19 0 20 7 20 160 l0 160 55 0 c42 0 55 3 55 15 0 13 -22 15 -136 15 -104
0 -135 -3 -132 -12z"/>
<path d="M10040 1945 l0 -175 105 0 c87 0 105 3 105 15 0 12 -16 15 -85 15
l-85 0 0 70 0 70 70 0 c56 0 70 3 70 15 0 12 -14 15 -70 15 l-70 0 0 60 0 60
80 0 c64 0 80 3 80 15 0 12 -18 15 -100 15 l-100 0 0 -175z"/>
<path d="M10330 1998 c0 -176 8 -228 33 -228 19 0 20 4 14 75 l-7 75 38 0 c36
0 39 -3 80 -75 35 -60 48 -75 68 -75 23 0 22 2 -21 74 -49 81 -51 86 -32 86 8
0 24 12 38 26 36 38 34 107 -4 140 -25 21 -37 24 -118 24 l-89 0 0 -122z m172
79 c22 -18 32 -60 19 -85 -14 -26 -61 -44 -107 -40 l-39 3 -3 68 -3 67 58 0
c32 0 66 -6 75 -13z"/>
<path d="M11127 2113 c-7 -12 -107 -323 -107 -334 0 -5 8 -9 19 -9 14 0 22 13
33 53 l15 52 68 0 68 0 17 -50 c12 -37 22 -51 38 -53 12 -2 22 -1 22 1 0 4
-73 213 -112 320 -7 19 -17 27 -33 27 -13 0 -26 -3 -28 -7z m83 -195 c0 -4
-25 -8 -55 -8 -30 0 -55 3 -55 6 0 6 38 138 47 164 4 13 63 -138 63 -162z"/>
<path d="M11360 1945 l0 -175 100 0 c82 0 100 3 100 15 0 12 -16 15 -80 15
l-80 0 0 160 c0 153 -1 160 -20 160 -19 0 -20 -7 -20 -175z"/>
<path d="M11630 1945 c0 -168 1 -175 20 -175 19 0 20 7 20 175 0 168 -1 175
-20 175 -19 0 -20 -7 -20 -175z"/>
<path d="M12120 1945 c0 -172 0 -175 21 -175 22 0 22 2 17 151 l-6 150 75
-128 c106 -181 100 -173 130 -173 25 0 26 1 19 53 -3 28 -6 107 -6 175 0 118
-1 122 -22 122 -21 0 -21 -1 -14 -152 l7 -153 -88 152 c-72 125 -92 152 -110
153 -23 0 -23 0 -23 -175z"/>
<path d="M12590 1945 c0 -168 1 -175 20 -175 18 0 20 7 20 80 l0 80 70 0 c56
0 70 3 70 15 0 12 -14 15 -70 15 l-70 0 0 65 0 65 80 0 c64 0 80 3 80 15 0 12
-18 15 -100 15 l-100 0 0 -175z"/>
<path d="M13230 1945 c0 -168 1 -175 20 -175 18 0 20 7 20 75 l0 75 35 0 c33
0 37 -4 77 -75 33 -57 48 -74 66 -75 12 0 22 2 22 5 0 2 -18 34 -40 70 -41 68
-47 85 -30 85 6 0 22 11 35 25 19 18 25 35 25 67 -1 76 -34 98 -149 98 l-81 0
0 -175z m168 129 c15 -10 22 -25 22 -48 0 -46 -28 -68 -95 -74 l-55 -4 0 71 0
71 53 0 c31 0 61 -6 75 -16z"/>
<path d="M13620 2115 c0 -3 23 -50 50 -105 29 -58 50 -113 50 -132 0 -71 12
-108 33 -108 18 0 19 5 14 66 -4 61 -2 70 38 152 58 119 61 132 37 132 -15 0
-28 -21 -57 -90 -21 -49 -39 -90 -40 -90 -2 0 -22 41 -46 90 -30 65 -47 90
-61 90 -10 0 -18 -2 -18 -5z"/>
<path d="M14290 1995 c0 -177 24 -224 117 -232 56 -5 108 21 123 63 6 14 10
86 10 160 0 128 -1 134 -20 134 -20 0 -21 -5 -18 -132 3 -145 -4 -168 -53
-188 -38 -16 -78 -2 -100 34 -16 26 -19 51 -19 159 0 120 -1 127 -20 127 -19
0 -20 -7 -20 -125z"/>
</g>
</svg>
