<?xml version="1.0" standalone="no"?>
<!DOCTYPE svg PUBLIC "-//W3C//DTD SVG 20010904//EN"
 "http://www.w3.org/TR/2001/REC-SVG-20010904/DTD/svg10.dtd">
<svg version="1.0" xmlns="http://www.w3.org/2000/svg"
 width="79.000000pt" height="70.000000pt" viewBox="0 0 504.000000 417.000000"
 preserveAspectRatio="xMidYMid meet">

<g transform="translate(0.000000,417.000000) scale(0.100000,-0.100000)"
fill="#4DA6E7" stroke="none">
<path d="M2326 3739 c-55 -4 -102 -12 -106 -16 -4 -4 -15 -33 -25 -63 -22 -70
-87 -225 -132 -315 -89 -177 -248 -381 -436 -561 -209 -199 -441 -343 -708
-440 -41 -15 -79 -32 -85 -38 -6 -6 -14 -61 -18 -123 l-6 -113 33 0 c91 1 327
74 482 150 110 53 274 158 375 239 98 79 283 264 369 372 188 233 334 533 376
776 20 115 20 143 -2 142 -10 -1 -63 -5 -117 -10z"/>
<path d="M2806 3658 c-28 -242 -104 -467 -241 -713 -151 -270 -331 -488 -585
-707 -320 -277 -720 -467 -1077 -514 -29 -4 -53 -11 -53 -16 0 -6 7 -34 15
-63 16 -53 16 -54 67 -64 166 -36 321 -23 523 44 296 97 594 282 854 528 283
270 518 641 610 962 62 214 72 364 34 512 -15 61 -16 61 -62 73 -25 6 -53 13
-62 16 -13 4 -18 -7 -23 -58z"/>
<path d="M1760 3583 c-321 -146 -637 -463 -784 -785 -20 -44 -31 -78 -24 -78
23 0 180 95 284 173 180 133 339 307 478 520 46 69 114 200 103 196 -1 0 -27
-12 -57 -26z"/>
<path d="M3327 3382 c-7 -166 -25 -261 -88 -446 -73 -216 -147 -363 -283 -566
-228 -338 -503 -609 -846 -833 -323 -210 -655 -322 -1014 -340 l-48 -2 43 -64
c39 -57 50 -67 99 -84 79 -28 266 -34 390 -13 429 75 940 398 1330 843 304
347 486 666 582 1026 18 67 22 111 22 242 1 140 -2 169 -21 230 -23 69 -24 71
-92 112 l-68 41 -6 -146z"/>
<path d="M3890 3018 c0 -4 -11 -67 -25 -141 -104 -565 -530 -1202 -1120 -1676
-332 -267 -725 -464 -1045 -526 -148 -28 -141 -25 -92 -47 210 -94 539 -49
887 122 263 130 491 296 726 530 264 263 427 484 564 765 126 257 168 401 182
625 7 114 -13 234 -51 306 -14 27 -25 46 -26 42z"/>
<path d="M4108 1918 c-178 -388 -362 -652 -668 -958 -281 -282 -531 -464 -865
-627 l-130 -64 145 5 c340 12 668 136 949 360 165 132 347 358 445 555 53 104
117 299 146 441 21 100 40 380 27 380 -4 0 -25 -42 -49 -92z"/>
</g>
</svg>
