<?xml version="1.0" standalone="no"?>
<!DOCTYPE svg PUBLIC "-//W3C//DTD SVG 20010904//EN"
 "http://www.w3.org/TR/2001/REC-SVG-20010904/DTD/svg10.dtd">
<svg version="1.0" xmlns="http://www.w3.org/2000/svg"
 width="160" height="80" viewBox="0 0 1882.000000 916.000000"
 preserveAspectRatio="xMidYMid meet">

<g transform="translate(0.000000,916.000000) scale(0.100000,-0.100000)"
fill="#FFF" stroke="none">
<path d="M0 4580 l0 -4580 9410 0 9410 0 0 4580 0 4580 -9410 0 -9410 0 0
-4580z m9700 2317 c109 -37 161 -61 269 -124 190 -111 413 -285 675 -527 140
-129 266 -231 336 -273 24 -14 35 -34 61 -111 17 -51 29 -96 26 -98 -7 -7
-195 88 -276 139 -36 23 -120 87 -186 142 -276 230 -413 327 -590 417 -187 95
-307 124 -468 115 -206 -12 -370 -83 -772 -337 -50 -32 -143 -85 -208 -120
-65 -34 -116 -64 -114 -66 2 -3 102 38 221 91 119 52 251 109 294 126 230 92
465 120 660 80 292 -61 598 -252 978 -611 154 -146 267 -227 420 -301 l101
-49 7 -80 c4 -44 5 -89 1 -99 -6 -19 -7 -19 -76 0 -110 30 -235 84 -335 144
-108 64 -158 103 -321 246 -267 236 -481 368 -718 442 -139 44 -200 51 -395
51 -166 0 -203 -4 -360 -33 -96 -18 -229 -45 -295 -61 -119 -28 -469 -100
-575 -118 -116 -20 11 -11 201 14 726 95 941 93 1255 -11 287 -95 558 -284
855 -595 176 -184 302 -294 416 -363 68 -40 191 -99 255 -120 16 -6 16 -11 -6
-69 -51 -134 -74 -178 -95 -178 -34 0 -196 58 -282 100 -160 80 -272 164 -463
350 -195 189 -291 269 -425 359 -185 124 -366 206 -576 259 -226 58 -317 65
-885 69 -283 2 -520 6 -527 8 -15 5 14 126 35 143 9 7 49 13 96 13 45 1 70 4
56 6 -18 4 8 15 90 40 123 37 274 92 343 124 23 11 35 18 26 15 -9 -2 24 35
73 82 50 48 171 177 268 287 321 362 436 456 615 502 76 19 224 10 315 -20z
m-1655 -1287 c589 -57 904 -129 1195 -275 297 -149 583 -388 905 -754 213
-244 302 -327 454 -425 l45 -29 -55 -49 c-70 -63 -180 -146 -246 -185 l-51
-32 -48 31 c-92 58 -192 148 -339 305 -82 87 -189 198 -239 247 -261 255 -555
450 -881 586 -188 78 -548 170 -880 225 -88 14 -162 29 -165 32 -7 7 -5 176 4
266 l8 77 41 0 c23 0 137 -9 252 -20z m-153 -516 c571 -198 906 -404 1303
-799 153 -152 258 -273 418 -480 102 -131 114 -151 99 -160 -10 -6 -107 -10
-242 -10 -197 0 -239 3 -335 23 -624 132 -1119 569 -1314 1161 -24 72 -71 276
-71 307 0 7 3 6 142 -42z m-2392 -2064 l0 -210 -134 0 -133 0 -6 47 c-3 32
-12 53 -26 64 -24 20 -103 32 -171 27 l-45 -3 -3 -102 -3 -103 126 0 125 0 0
-70 0 -70 -120 0 -120 0 0 -110 0 -110 96 0 c52 0 104 4 114 10 20 10 40 59
40 96 l0 24 135 0 135 0 0 -179 c0 -98 3 -193 6 -210 l7 -31 -557 0 -556 0 0
144 0 143 41 6 c79 10 79 12 79 257 0 276 -8 300 -94 300 l-36 0 0 68 c0 38
-3 103 -6 145 l-7 77 557 0 556 0 0 -210z m1141 188 c0 -13 4 -195 8 -405 8
-432 7 -423 83 -423 l38 0 0 -145 0 -145 -260 0 -260 0 0 70 c0 75 -10 88 -30
40 -19 -45 -87 -99 -149 -116 -38 -12 -82 -15 -150 -12 -83 3 -105 8 -155 33
-132 67 -199 207 -199 420 -1 276 112 412 350 423 106 5 162 -6 246 -49 l57
-29 0 31 c0 49 -15 66 -65 73 l-45 7 0 125 0 124 265 0 265 0 1 -22z m2433 12
c83 -12 175 -58 211 -106 51 -67 68 -122 73 -235 6 -135 -12 -202 -69 -264
-74 -80 -172 -105 -416 -105 l-153 0 0 -39 c0 -24 8 -48 21 -65 18 -23 27 -26
83 -26 l63 0 6 -82 c4 -46 7 -111 7 -145 l0 -63 -380 0 -380 0 0 144 0 144 45
6 c72 11 75 21 74 231 -1 293 -10 324 -90 325 -33 0 -37 3 -43 31 -3 17 -6 83
-6 145 l0 114 443 0 c243 0 473 -5 511 -10z m911 -392 l7 -401 24 -24 c14 -14
35 -23 52 -23 18 0 32 -6 36 -16 3 -9 6 -74 6 -145 l0 -129 -325 0 -325 0 0
63 c0 34 -3 99 -7 145 l-6 82 36 0 c27 0 41 7 57 27 21 26 21 35 18 254 -3
255 -5 259 -80 279 l-38 11 0 139 0 140 269 0 269 0 7 -402z m4327 260 l3
-143 118 -3 117 -3 0 -139 0 -140 -115 0 -115 0 0 -117 c1 -145 11 -202 40
-225 30 -24 54 -23 87 6 27 23 28 28 27 115 l0 91 43 0 43 0 0 -113 c0 -185
-39 -270 -147 -323 -50 -25 -72 -29 -164 -32 -288 -10 -358 83 -359 481 l0
117 -60 0 -60 0 0 73 c0 39 -3 95 -6 124 -7 51 -6 52 22 58 139 30 215 117
239 273 l7 42 139 0 138 0 3 -142z m-3437 -130 c124 -26 210 -91 245 -186 16
-43 20 -79 21 -195 2 -219 10 -308 32 -321 15 -9 22 -7 38 13 15 19 19 39 19
102 l0 79 46 0 47 0 -6 -109 c-8 -158 -39 -218 -132 -257 -53 -22 -189 -30
-253 -14 -71 17 -138 63 -154 106 -6 19 -14 34 -18 34 -3 0 -12 -15 -21 -33
-35 -70 -149 -117 -288 -117 -162 0 -267 61 -290 169 -14 67 -14 85 3 125 30
71 99 111 278 159 213 58 268 98 268 194 0 49 -4 59 -33 88 -41 41 -100 52
-183 35 -52 -11 -110 -37 -101 -46 2 -2 19 1 37 6 46 13 103 -3 129 -37 41
-51 22 -150 -36 -189 -42 -28 -190 -27 -229 2 -46 34 -67 70 -72 123 -11 115
57 197 211 255 92 35 310 42 442 14z m1364 12 c113 -19 193 -75 232 -162 20
-46 24 -75 29 -226 4 -111 10 -176 18 -184 6 -6 31 -14 54 -17 l43 -6 3 -142
3 -143 -264 0 -264 0 -7 61 c-3 34 -6 151 -6 261 0 156 -3 205 -15 228 -28 54
-120 48 -150 -11 -10 -18 -15 -59 -15 -116 0 -109 13 -133 69 -133 49 0 51 -7
51 -167 l0 -123 -325 0 -325 0 0 145 0 145 33 0 c64 0 72 15 72 135 0 100 -1
108 -24 126 -13 10 -38 19 -57 19 l-34 0 0 140 0 140 228 0 229 0 -3 -107 c-3
-103 -3 -106 10 -67 41 124 114 184 246 203 79 12 97 12 169 1z m1129 -15
c206 -48 322 -194 346 -432 l5 -53 -308 0 -308 0 8 -47 c10 -66 22 -94 54
-123 23 -22 36 -25 101 -25 66 0 76 3 99 26 15 14 32 43 40 65 l13 39 141 3
142 3 -7 -28 c-34 -155 -105 -236 -251 -290 -93 -34 -282 -43 -397 -19 -222
46 -350 178 -377 388 -14 105 -2 183 40 274 64 136 184 208 396 238 50 7 195
-4 263 -19z m-6018 -137 c0 -245 12 -408 31 -431 26 -33 94 -30 125 6 22 26
24 37 24 126 0 113 -8 130 -67 138 l-40 5 -7 61 c-3 33 -6 95 -6 138 l0 79
268 0 269 0 6 -157 c4 -87 7 -205 7 -262 0 -122 10 -141 72 -141 l38 0 0 -77
c0 -43 3 -108 7 -145 l6 -68 -232 0 -231 0 -1 58 c0 31 -4 80 -8 107 l-7 50
-17 -55 c-23 -77 -74 -133 -145 -161 -75 -29 -231 -32 -309 -6 -153 53 -203
155 -203 418 0 136 -6 149 -73 156 l-47 6 0 138 0 139 270 0 270 0 0 -122z
m-2845 -1260 c16 -82 32 -148 36 -148 3 0 9 17 12 37 4 20 18 88 33 150 24
103 29 114 48 111 18 -3 27 -24 62 -157 29 -109 43 -148 47 -130 3 13 15 84
28 157 19 113 25 132 41 132 24 0 24 -13 -13 -206 l-32 -164 -27 0 c-27 0 -28
3 -67 152 l-40 153 -17 -80 c-45 -207 -50 -220 -79 -223 -15 -2 -27 -1 -27 1
0 2 -18 82 -40 177 -22 95 -40 177 -40 182 0 5 10 8 23 6 20 -3 25 -16 52
-150z m443 69 l3 -78 82 3 82 3 3 78 c2 66 5 77 21 77 16 0 19 -13 24 -122 4
-66 7 -150 7 -185 0 -61 -1 -63 -25 -63 -25 0 -25 1 -25 90 l0 90 -85 0 -85 0
0 -90 c0 -81 -2 -90 -18 -90 -17 0 -20 12 -25 107 -4 58 -7 142 -7 185 0 77 1
79 23 76 20 -3 22 -9 25 -81z m522 63 c0 -18 -7 -20 -80 -20 l-81 0 3 -57 3
-58 68 -3 c49 -2 67 -7 67 -17 0 -10 -18 -15 -67 -17 l-68 -3 0 -65 0 -65 83
-3 c74 -3 82 -5 82 -22 0 -19 -7 -20 -104 -20 l-103 0 -5 178 c-3 97 -4 180
-1 185 2 4 49 7 104 7 92 0 99 -1 99 -20z m289 -7 c55 -42 49 -138 -10 -169
l-28 -14 44 -74 c25 -40 45 -76 45 -80 0 -3 -10 -6 -23 -6 -18 0 -32 16 -68
78 -40 68 -49 77 -77 80 l-32 3 0 -80 c0 -80 0 -81 -25 -81 l-25 0 0 186 0
187 86 -6 c64 -4 93 -10 113 -24z m331 7 c0 -18 -7 -20 -80 -20 l-80 0 0 -60
0 -60 70 0 c56 0 70 -3 70 -15 0 -12 -14 -15 -70 -15 l-70 0 0 -70 0 -70 85 0
c78 0 85 -2 85 -20 0 -19 -7 -20 -104 -20 -85 0 -105 3 -110 16 -3 9 -6 92 -6
185 l0 169 105 0 c98 0 105 -1 105 -20z m240 -129 c0 -82 3 -156 6 -165 5 -13
22 -16 86 -16 70 0 79 -2 76 -17 -3 -16 -17 -18 -105 -21 l-102 -3 -3 178 c-2
98 -2 181 0 186 2 4 12 7 23 7 18 0 19 -8 19 -149z m430 129 c0 -18 -7 -20
-80 -20 l-81 0 3 -57 3 -58 68 -3 c51 -2 67 -6 67 -17 0 -12 -15 -15 -65 -15
-77 0 -80 -5 -70 -85 l6 -55 85 0 c76 0 85 -2 82 -17 -3 -16 -18 -18 -110 -21
l-106 -3 -4 178 c-2 98 -2 181 0 186 2 4 48 7 103 7 92 0 99 -1 99 -20z m277
-160 c35 -96 63 -179 63 -183 0 -5 -10 -7 -22 -5 -16 2 -27 17 -43 58 l-21 55
-64 0 -64 0 -17 -55 c-12 -42 -21 -56 -38 -58 -11 -2 -21 0 -21 5 0 5 25 86
55 181 30 95 55 175 55 178 0 3 12 4 28 2 26 -3 30 -12 89 -178z m310 159 c46
-28 57 -108 22 -153 -11 -14 -27 -26 -35 -26 -21 0 -18 -12 26 -88 22 -38 40
-72 40 -76 0 -4 -10 -6 -22 -4 -16 2 -36 26 -68 80 -41 71 -48 78 -77 78 l-33
0 0 -80 c0 -71 -2 -80 -19 -80 -25 0 -31 40 -31 224 l0 149 88 -5 c48 -3 97
-11 109 -19z m252 -116 c44 -76 84 -144 88 -151 5 -8 7 54 5 137 -4 148 -4
151 17 151 18 0 21 -6 21 -48 0 -27 3 -110 7 -185 l6 -137 -25 0 c-26 0 -28 3
-195 288 -5 8 -7 -54 -5 -137 4 -148 4 -151 -17 -151 -20 0 -21 5 -21 78 0 44
-3 127 -7 185 l-6 107 25 0 c23 0 36 -18 107 -137z m281 -48 c0 -178 -1 -185
-20 -185 -17 0 -20 7 -20 48 0 27 -3 110 -7 185 l-6 137 26 0 27 0 0 -185z
m220 55 c109 -190 101 -188 98 -20 -3 144 -3 145 20 148 l22 3 0 -186 c0 -186
0 -186 -22 -183 -22 3 -46 38 -150 218 l-49 85 7 -153 7 -154 -24 4 -24 3 -3
183 -2 182 22 0 c19 0 37 -24 98 -130z m459 111 c16 -12 22 -24 18 -35 -6 -16
-9 -16 -29 -2 -29 20 -97 20 -126 0 -34 -23 -52 -67 -52 -124 0 -94 46 -150
123 -150 52 0 69 18 65 70 -3 44 -4 45 -40 48 -25 2 -38 8 -38 18 0 11 14 14
60 14 l60 0 0 -73 c0 -97 -14 -112 -109 -112 -105 0 -157 49 -168 160 -9 84
31 170 92 195 37 16 118 11 144 -9z m442 2 c33 -19 35 -26 15 -42 -10 -9 -16
-8 -26 4 -20 25 -92 19 -123 -9 -59 -55 -57 -189 4 -241 36 -29 92 -34 128 -9
17 13 25 14 34 4 9 -9 5 -17 -16 -36 -56 -49 -156 -26 -211 49 -30 41 -35 168
-8 217 40 73 135 103 203 63z m319 -3 c0 -18 -7 -20 -80 -20 l-80 0 0 -60 0
-60 70 0 c56 0 70 -3 70 -15 0 -12 -14 -15 -70 -15 l-70 0 0 -70 0 -70 85 0
c78 0 85 -2 85 -20 0 -19 -7 -20 -104 -20 l-103 0 -7 77 c-3 42 -6 125 -6 185
l0 108 105 0 c98 0 105 -1 105 -20z m211 -120 c43 -74 82 -141 87 -149 4 -8 6
53 4 137 -4 146 -4 152 15 152 18 0 20 -9 26 -122 4 -66 7 -150 7 -185 0 -60
-1 -63 -24 -63 -21 0 -37 22 -112 150 -48 83 -87 150 -88 150 -1 0 1 -67 2
-150 4 -143 3 -150 -16 -150 -18 0 -20 10 -24 178 -3 97 -3 181 -1 185 3 5 14
7 25 5 15 -2 44 -43 99 -138z m467 118 c3 -15 -5 -18 -52 -18 l-56 0 0 -166 0
-165 -22 3 c-23 3 -23 6 -26 166 l-2 162 -55 0 c-49 0 -55 2 -55 20 0 20 5 20
132 18 117 -3 133 -5 136 -20z m272 2 c0 -18 -7 -20 -80 -20 l-80 0 0 -60 0
-60 70 0 c56 0 70 -3 70 -15 0 -12 -14 -15 -70 -15 l-70 0 0 -70 0 -70 85 0
c78 0 85 -2 85 -20 0 -19 -7 -20 -104 -20 l-103 0 -6 83 c-4 45 -7 128 -7 185
l0 102 105 0 c98 0 105 -1 105 -20z m279 0 c30 -16 54 -74 46 -111 -4 -16 -22
-42 -40 -56 l-34 -27 26 -46 c15 -25 35 -60 46 -77 l19 -33 -25 0 c-21 0 -33
14 -72 80 -44 76 -49 80 -82 80 l-35 0 4 -77 c3 -73 1 -78 -18 -81 -21 -3 -22
1 -26 175 -3 98 -3 182 0 187 7 12 164 1 191 -14z m301 3 c14 -9 27 -18 29
-19 2 -2 -2 -10 -9 -19 -11 -13 -15 -13 -33 0 -25 17 -80 20 -108 5 -24 -13
-25 -52 -1 -73 10 -9 42 -27 72 -40 67 -30 89 -53 97 -100 5 -32 1 -41 -30
-72 -31 -31 -41 -35 -87 -35 -35 0 -65 7 -91 22 -42 24 -46 30 -26 46 9 8 21
6 42 -8 58 -38 145 -18 145 34 0 32 -10 41 -87 80 -40 20 -80 47 -89 61 -22
34 -11 88 23 115 33 26 117 28 153 3z m417 -158 c34 -93 62 -176 62 -183 1 -8
-8 -12 -21 -10 -17 2 -27 15 -38 50 -8 26 -20 52 -26 58 -6 6 -36 10 -70 8
l-58 -3 -17 -55 c-12 -42 -21 -56 -38 -58 -11 -2 -21 0 -21 4 0 5 26 88 57
186 55 174 58 179 82 176 24 -3 31 -17 88 -173z m161 8 l2 -163 80 0 c73 0 80
-2 80 -20 0 -19 -7 -20 -99 -20 l-98 0 -7 77 c-3 42 -6 125 -6 185 0 108 0
109 23 106 22 -3 22 -6 25 -165z m270 -20 c2 -173 1 -183 -16 -183 -16 0 -20
10 -25 68 -4 37 -7 120 -7 185 0 117 0 118 23 115 22 -3 22 -5 25 -185z m321
168 c16 -12 22 -24 18 -35 -6 -16 -9 -16 -29 -2 -38 27 -103 21 -140 -13 -27
-24 -32 -36 -36 -88 -8 -108 24 -162 101 -170 68 -8 83 5 79 66 -4 51 -4 51
-38 51 -24 0 -34 5 -34 15 0 13 11 15 58 13 l57 -3 3 -72 c3 -73 3 -73 -30
-93 -47 -30 -133 -24 -181 13 -93 71 -88 254 9 318 39 26 130 26 163 0z m245
-116 c43 -74 84 -141 90 -150 8 -12 10 21 8 135 -3 146 -2 150 17 150 20 0 21
-5 21 -186 l0 -185 -22 3 c-18 2 -43 38 -110 152 l-87 149 6 -152 c6 -147 6
-151 -14 -151 -27 0 -33 37 -33 223 0 147 0 147 23 147 19 0 37 -23 101 -135z
m556 115 c0 -18 -7 -20 -80 -20 l-80 0 0 -65 0 -65 70 0 c56 0 70 -3 70 -15 0
-12 -14 -15 -70 -15 l-70 0 0 -85 c0 -76 -2 -85 -18 -85 -17 0 -20 12 -25 113
-4 61 -7 145 -7 185 l0 72 105 0 c98 0 105 -1 105 -20z m276 1 c68 -42 99
-190 55 -271 -58 -110 -207 -107 -265 5 -45 85 -19 225 48 266 41 25 121 25
162 0z m352 -2 c45 -28 56 -109 21 -153 -11 -14 -27 -26 -35 -26 -22 0 -17
-16 26 -89 22 -37 40 -71 40 -75 0 -4 -10 -6 -22 -4 -17 2 -36 25 -68 80 -41
71 -48 78 -77 78 l-33 0 0 -80 c0 -72 -2 -80 -19 -80 -10 0 -22 7 -25 16 -3 9
-6 92 -6 186 l0 171 89 -6 c49 -3 98 -11 109 -18z m275 -69 c23 -49 44 -90 47
-90 3 0 22 41 44 90 33 76 42 90 62 90 23 0 22 -4 -32 -117 -52 -111 -55 -122
-52 -183 3 -61 2 -65 -19 -68 -22 -3 -23 0 -23 67 0 66 -4 79 -55 181 -30 60
-55 112 -55 115 0 3 9 5 21 5 16 0 29 -19 62 -90z m435 70 c19 -12 41 -38 52
-63 26 -57 27 -160 1 -207 -56 -107 -202 -107 -261 0 -48 88 -23 236 48 274
40 22 120 20 160 -4z m196 -26 c3 -26 6 -85 6 -131 0 -116 21 -153 85 -153 71
0 85 34 85 200 0 123 1 130 20 130 19 0 20 -7 20 -140 0 -153 -8 -183 -54
-214 -37 -24 -106 -21 -147 7 -46 31 -57 76 -58 225 -1 113 0 122 18 122 14 0
20 -10 25 -46z"/>
<path d="M6053 2708 c-40 -45 -47 -70 -47 -173 0 -55 6 -117 13 -137 35 -105
172 -104 201 0 5 20 10 94 10 164 l0 128 -40 20 c-54 27 -111 26 -137 -2z"/>
<path d="M8712 2834 l3 -129 51 -3 c87 -5 128 25 141 102 7 43 -20 122 -46
136 -10 5 -48 12 -85 16 l-67 7 3 -129z"/>
<path d="M10696 2491 c-10 -11 -38 -32 -61 -46 -50 -29 -73 -73 -59 -113 19
-55 110 -51 134 7 6 15 10 60 8 100 -3 73 -3 73 -22 52z"/>
<path d="M13162 2764 c-30 -20 -49 -60 -53 -109 l-4 -40 104 -3 c57 -1 108 1
113 6 15 15 -12 100 -42 132 -32 34 -81 40 -118 14z"/>
<path d="M5602 1613 l3 -68 52 0 c64 1 93 23 93 71 0 45 -30 64 -98 64 l-53 0
3 -67z"/>
<path d="M6922 1592 c-12 -44 -22 -82 -22 -86 0 -3 23 -6 50 -6 34 0 50 4 50
13 0 17 -41 140 -50 150 -4 4 -16 -28 -28 -71z"/>
<path d="M7200 1610 l0 -70 35 0 c54 0 101 23 109 54 13 53 -24 86 -98 86
l-46 0 0 -70z"/>
<path d="M10402 1613 l3 -68 53 1 c62 2 92 23 92 66 0 46 -31 68 -95 68 l-56
0 3 -67z"/>
<path d="M11156 1602 c-10 -37 -21 -75 -23 -84 -5 -16 2 -18 46 -18 35 0 51 4
51 13 0 17 -40 140 -49 149 -4 5 -15 -22 -25 -60z"/>
<path d="M12961 1664 c-51 -36 -66 -135 -32 -211 11 -23 28 -46 39 -52 26 -14
77 -14 102 -1 42 22 64 107 48 182 -17 83 -97 124 -157 82z"/>
<path d="M13300 1610 l0 -70 35 0 c54 0 101 23 109 54 13 53 -24 86 -98 86
l-46 0 0 -70z"/>
<path d="M14021 1664 c-49 -35 -65 -128 -35 -203 19 -48 51 -71 99 -71 68 0
113 82 99 178 -13 90 -99 140 -163 96z"/>
</g>
</svg>
